<?xml version="1.0" standalone="no"?>
<!DOCTYPE svg PUBLIC "-//W3C//DTD SVG 20010904//EN"
 "http://www.w3.org/TR/2001/REC-SVG-20010904/DTD/svg10.dtd">
<svg version="1.0" xmlns="http://www.w3.org/2000/svg"
 width="300.000000pt" height="300.000000pt" viewBox="0 0 300.000000 300.000000"
 preserveAspectRatio="xMidYMid meet">
<metadata>
Created by potrace 1.11, written by Peter Selinger 2001-2013
</metadata>
<g transform="translate(0.000000,300.000000) scale(0.100000,-0.100000)"
fill="#000000" stroke="none">
<path d="M1327 2964 c-435 -77 -782 -428 -855 -864 -9 -56 -9 -260 0 -320 50
-340 273 -784 646 -1289 101 -137 74 -102 233 -296 73 -88 139 -165 147 -171
12 -9 22 -2 51 30 20 22 42 47 48 54 7 7 59 70 116 140 467 574 756 1097 831
1507 23 125 15 316 -18 440 -124 464 -535 782 -1011 782 -60 0 -145 -6 -188
-13z m336 -722 c192 -95 253 -331 131 -509 -38 -56 -118 -117 -174 -133 -171
-51 -349 27 -425 185 -25 52 -29 72 -29 145 0 70 4 94 25 140 86 185 293 260
472 172z"/>
</g>
</svg>
